<?xml version="1.0" encoding="UTF-8"?>
<svg version="1.1" xmlns="http://www.w3.org/2000/svg" width="128" height="128">
<path d="M0 0 C1.95574875 2.88705768 3.63828266 5.87772348 5.3125 8.9375 C6.4571875 7.7928125 6.4571875 7.7928125 7.625 6.625 C8.9553125 5.2946875 8.9553125 5.2946875 10.3125 3.9375 C10.745625 3.339375 11.17875 2.74125 11.625 2.125 C14.56314464 0.05741674 17.89448019 0.57925394 21.3125 0.9375 C24.34585007 1.48688384 27.32888427 2.16397 30.3125 2.9375 C30.96484375 4.703125 30.96484375 4.703125 31.3125 6.9375 C30.31640625 8.859375 30.31640625 8.859375 28.875 10.6875 C28.16537109 11.60789062 28.16537109 11.60789062 27.44140625 12.546875 C27.06886719 13.00578125 26.69632812 13.4646875 26.3125 13.9375 C29.49604511 14.9986817 32.10310694 15.20327775 35.44921875 15.40234375 C37.27549805 15.51932617 37.27549805 15.51932617 39.13867188 15.63867188 C41.69319551 15.79501854 44.24788338 15.94870652 46.80273438 16.09960938 C63.55999261 17.18499261 63.55999261 17.18499261 66.3125 19.9375 C66.42189319 21.55570861 66.46158569 23.17867989 66.47363281 24.80053711 C66.4831044 25.84754288 66.49257599 26.89454865 66.50233459 27.97328186 C66.50891335 29.701605 66.50891335 29.701605 66.515625 31.46484375 C66.52254868 32.66060532 66.52947235 33.85636688 66.53660583 35.08836365 C66.55408445 39.01725669 66.5605375 42.94607679 66.5625 46.875 C66.56323643 47.53915169 66.56397285 48.20330338 66.5647316 48.88758087 C66.5812288 67.06074843 66.29197136 85.17734746 65 103.3125 C64.91171936 104.63059158 64.91171936 104.63059158 64.82165527 105.97531128 C64.65211052 108.43054354 64.46201468 110.88304229 64.26171875 113.3359375 C64.21156113 114.04157333 64.1614035 114.74720917 64.10972595 115.47422791 C63.72640331 119.65399034 63.27077208 122.86713643 60.3125 125.9375 C57.19550179 126.46328264 54.63280172 126.63760464 51.5078125 126.6015625 C50.12927345 126.61159302 50.12927345 126.61159302 48.72288513 126.62182617 C45.62694004 126.63180159 42.53322078 126.5994626 39.4375 126.5625 C37.83828201 126.55485626 37.83828201 126.55485626 36.20675659 126.54705811 C15.04525024 126.43047223 -6.02715866 125.08738933 -27.125 123.5625 C-27.90138573 123.50711311 -28.67777145 123.45172623 -29.47768402 123.39466095 C-33.97633726 123.0732689 -38.47385387 122.74029887 -42.97025871 122.38879395 C-44.35141177 122.28149964 -45.73276762 122.17678165 -47.11432076 122.07476807 C-49.01235748 121.93317139 -50.9094193 121.77868217 -52.80639648 121.62353516 C-53.874702 121.53915192 -54.94300751 121.45476868 -56.04368591 121.36782837 C-58.6875 120.9375 -58.6875 120.9375 -61.6875 118.9375 C-62.0617218 116.0693512 -62.0617218 116.0693512 -62.05981445 112.34594727 C-62.06346512 111.66726089 -62.06711578 110.98857452 -62.07087708 110.2893219 C-62.07902725 108.02726716 -62.06530149 105.76592102 -62.05078125 103.50390625 C-62.05026169 101.91234843 -62.05078311 100.32078997 -62.05229187 98.72923279 C-62.05220185 95.37058067 -62.04174047 92.012167 -62.02368164 88.65356445 C-62.00144639 84.43355235 -62.00056707 80.21389882 -62.00691414 75.99384499 C-62.02484299 60.42420702 -61.90792311 44.87895207 -60.85546875 29.33984375 C-60.78660965 28.24241348 -60.71775055 27.14498322 -60.64680481 26.01429749 C-60.15191233 19.74518709 -59.47351122 15.65695875 -54.83764648 11.13183594 C-52.10233246 9.6124586 -50.39771831 9.65911711 -47.28515625 9.828125 C-46.23513428 9.87783447 -45.1851123 9.92754395 -44.10327148 9.97875977 C-42.99669189 10.04764404 -41.8901123 10.11652832 -40.75 10.1875 C-39.62730713 10.24542725 -38.50461426 10.30335449 -37.34790039 10.36303711 C-29.78750352 10.76654297 -22.22641139 11.23306892 -14.6875 11.9375 C-15.368125 10.885625 -16.04875 9.83375 -16.75 8.75 C-18.3231595 6.03422991 -18.71262513 5.23272026 -18.4375 2 C-18.19 1.319375 -17.9425 0.63875 -17.6875 -0.0625 C-3.05113636 -1.92108586 -3.05113636 -1.92108586 0 0 Z " fill="#FC3939" transform="translate(61.6875,2.0625)"/>
<path d="M0 0 C1.76150391 -0.02126953 1.76150391 -0.02126953 3.55859375 -0.04296875 C6.5625 0.1875 6.5625 0.1875 8.5625 2.1875 C10.01071348 16.73352653 8.03919343 32.83437904 5.5625 47.1875 C3.69006019 49.05993981 0.62590482 48.36130392 -1.875 48.375 C-3.04933594 48.38917969 -4.22367187 48.40335938 -5.43359375 48.41796875 C-8.4375 48.1875 -8.4375 48.1875 -10.4375 46.1875 C-10.47413813 43.10379077 -10.3831448 40.133901 -10.1875 37.0625 C-10.1359375 36.14629883 -10.084375 35.23009766 -10.03125 34.28613281 C-9.58987718 26.83044306 -9.03165833 19.38241603 -8.4375 11.9375 C-8.35467773 10.8841748 -8.27185547 9.83084961 -8.18652344 8.74560547 C-8.1043457 7.77252441 -8.02216797 6.79944336 -7.9375 5.796875 C-7.8653125 4.93030273 -7.793125 4.06373047 -7.71875 3.17089844 C-7.10362664 -1.16700278 -3.72980296 0.02042608 0 0 Z " fill="#FEF9F9" transform="translate(76.4375,52.8125)"/>
<path d="M0 0 C1.0725 0.01417969 2.145 0.02835938 3.25 0.04296875 C4.3225 0.04941406 5.395 0.05585937 6.5 0.0625 C9.25 0.23046875 9.25 0.23046875 11.25 1.23046875 C11.46821202 13.23716529 11.36553984 25.13591589 10.3125 37.10546875 C10.22564941 38.10328369 10.13879883 39.10109863 10.04931641 40.12915039 C9.38787823 47.09259052 9.38787823 47.09259052 8.25 48.23046875 C5.91839945 48.32956177 3.58370058 48.36017379 1.25 48.35546875 C-0.02875 48.35804687 -1.3075 48.360625 -2.625 48.36328125 C-5.75 48.23046875 -5.75 48.23046875 -6.75 47.23046875 C-6.85111157 44.89895486 -6.87963036 42.56416948 -6.875 40.23046875 C-6.87757812 38.95171875 -6.88015625 37.67296875 -6.8828125 36.35546875 C-6.81913597 32.74496619 -6.42741357 29.22235067 -5.99511719 25.64013672 C-5.44788182 20.2604424 -5.38363439 14.83472202 -5.23242188 9.43164062 C-5.19826172 8.53123047 -5.16410156 7.63082031 -5.12890625 6.703125 C-5.1038501 5.89109619 -5.07879395 5.07906738 -5.05297852 4.24243164 C-4.54433785 0.86474616 -3.28295353 0.27513389 0 0 Z " fill="#FEF9F9" transform="translate(47.75,50.76953125)"/>
</svg>
