<?xml version="1.0" encoding="utf-8"?>
<svg width="859" height="244" viewBox="0 0 859 244" fill="none" xmlns="http://www.w3.org/2000/svg">
  <defs>
    <clipPath id="clip_path_1">
      <rect width="859" height="244" />
    </clipPath>
  </defs>
  <g clip-path="url(#clip_path_1)">
    <rect width="859" height="244" fill="#000000" fill-rule="evenodd" fill-opacity="0" />
    <g id="Group" transform="translate(-16.96 -39)">
      <g transform="translate(9.303 0)">
        <path d="M191.52 252.864L191.52 181.44Q191.52 168.192 192.528 154.224Q193.536 140.256 194.688 130.752Q195.84 121.248 196.128 118.656L194.976 118.656L158.4 252.864L108.576 252.864L71.712 118.944L70.56 118.944Q70.848 121.536 72.144 130.896Q73.44 140.256 74.592 154.224Q75.744 168.192 75.744 181.44L75.744 252.864L17.28 252.864L17.28 54.72L107.136 54.72L137.088 169.056L138.24 169.056L167.904 54.72L254.592 54.72L254.592 252.864L191.52 252.864Z" fill="#FFFFFF" fill-opacity="0" />
        <path d="M99.84 42.72Q142.56 42.72 165.84 64.56Q189.12 86.4 189.12 128.16Q189.12 169.92 165.84 191.76Q142.56 213.6 99.84 213.6Q57.12 213.6 33.96 191.88Q10.8 170.16 10.8 128.16Q10.8 86.16 33.96 64.44Q57.12 42.72 99.84 42.72ZM99.84 82.32Q82.8 82.32 73.92 92.64Q65.04 102.96 65.04 120.48L65.04 135.84Q65.04 153.36 73.92 163.68Q82.8 174 99.84 174Q116.88 174 125.88 163.68Q134.88 153.36 134.88 135.84L134.88 120.48Q134.88 102.96 125.88 92.64Q116.88 82.32 99.84 82.32ZM335.76 210.72L266.4 130.56L266.4 210.72L217.68 210.72L217.68 45.6L264 45.6L333.36 126.96L333.36 45.6L382.08 45.6L382.08 210.72L335.76 210.72ZM499.68 42.72Q542.4 42.72 565.68 64.56Q588.96 86.4 588.96 128.16Q588.96 169.92 565.68 191.76Q542.4 213.6 499.68 213.6Q456.96 213.6 433.8 191.88Q410.64 170.16 410.64 128.16Q410.64 86.16 433.8 64.44Q456.96 42.72 499.68 42.72ZM499.68 82.32Q482.64 82.32 473.76 92.64Q464.88 102.96 464.88 120.48L464.88 135.84Q464.88 153.36 473.76 163.68Q482.64 174 499.68 174Q516.72 174 525.72 163.68Q534.72 153.36 534.72 135.84L534.72 120.48Q534.72 102.96 525.72 92.64Q516.72 82.32 499.68 82.32Z" transform="translate(271.872 42.144)" fill="#242424" />
      </g>
      <g id="Mono" transform="matrix(0.998 -0.07 0.07 0.998 0 48.452)">
        <path id="Rectangle" d="M23.1689 13.746L218.878 0.0606709Q219.488 0.0180209 220.099 0.00534987Q220.711 -0.00732114 221.322 0.0100174Q221.933 0.0273558 222.543 0.0746621Q223.152 0.121968 223.759 0.199128Q224.365 0.276288 224.967 0.383116Q225.569 0.489944 226.165 0.626182Q226.761 0.762421 227.35 0.927741Q227.939 1.09306 228.519 1.28707Q229.098 1.48107 229.668 1.70329Q230.238 1.92551 230.796 2.17542Q231.354 2.42532 231.899 2.7023Q232.444 2.97928 232.975 3.28268Q233.505 3.58607 234.021 3.91515Q234.536 4.24422 235.035 4.59819Q235.533 4.95215 236.014 5.33015Q236.494 5.70815 236.956 6.10927Q237.417 6.51039 237.858 6.93368Q238.299 7.35696 238.719 7.80138Q239.139 8.2458 239.537 8.71029Q239.934 9.17478 240.309 9.65822Q240.683 10.1417 241.033 10.6429Q241.383 11.1441 241.708 11.6619Q242.034 12.1797 242.333 12.7128Q242.632 13.246 242.905 13.7931Q243.178 14.3403 243.424 14.9002Q243.669 15.4601 243.887 16.0314Q244.105 16.6027 244.294 17.184Q244.484 17.7653 244.645 18.3551Q244.806 18.945 244.937 19.5421Q245.069 20.1392 245.171 20.742Q245.274 21.3448 245.346 21.9519Q245.419 22.559 245.461 23.1689L256.39 179.46Q256.433 180.07 256.445 180.681Q256.458 181.292 256.441 181.904Q256.423 182.515 256.376 183.124Q256.329 183.734 256.252 184.34Q256.174 184.947 256.068 185.549Q255.961 186.151 255.825 186.747Q255.688 187.343 255.523 187.932Q255.358 188.52 255.164 189.1Q254.97 189.68 254.747 190.249Q254.525 190.819 254.275 191.377Q254.025 191.935 253.748 192.48Q253.471 193.025 253.168 193.556Q252.865 194.087 252.536 194.602Q252.206 195.118 251.853 195.616Q251.499 196.115 251.121 196.595Q250.743 197.076 250.341 197.537Q249.94 197.999 249.517 198.44Q249.094 198.881 248.649 199.301Q248.205 199.721 247.74 200.118Q247.276 200.516 246.792 200.89Q246.309 201.265 245.808 201.615Q245.307 201.965 244.789 202.29Q244.271 202.615 243.738 202.915Q243.205 203.214 242.658 203.487Q242.11 203.759 241.551 204.005Q240.991 204.251 240.419 204.469Q239.848 204.686 239.267 204.876Q238.685 205.066 238.096 205.226Q237.506 205.387 236.909 205.519Q236.312 205.651 235.709 205.753Q235.106 205.855 234.499 205.928Q233.892 206 233.282 206.043L37.5725 219.728Q36.9626 219.771 36.3513 219.783Q35.7401 219.796 35.1289 219.779Q34.5177 219.761 33.9081 219.714Q33.2985 219.667 32.692 219.59Q32.0855 219.512 31.4835 219.406Q30.8815 219.299 30.2854 219.163Q29.6894 219.026 29.1008 218.861Q28.5121 218.696 27.9323 218.502Q27.3525 218.308 26.7829 218.085Q26.2133 217.863 25.6553 217.613Q25.0973 217.363 24.5522 217.086Q24.0071 216.809 23.4763 216.506Q22.9454 216.203 22.4301 215.874Q21.9148 215.545 21.4163 215.191Q20.9178 214.837 20.4372 214.459Q19.9566 214.081 19.4952 213.679Q19.0338 213.278 18.5926 212.855Q18.1514 212.432 17.7315 211.987Q17.3116 211.543 16.914 211.078Q16.5164 210.614 16.1421 210.131Q15.7677 209.647 15.4176 209.146Q15.0675 208.645 14.7423 208.127Q14.4172 207.609 14.1179 207.076Q13.8185 206.543 13.5457 205.996Q13.2729 205.448 13.0273 204.889Q12.7816 204.329 12.5638 203.757Q12.3459 203.186 12.1563 202.605Q11.9668 202.023 11.8059 201.434Q11.6451 200.844 11.5134 200.247Q11.3818 199.65 11.2795 199.047Q11.1773 198.444 11.1048 197.837Q11.0322 197.23 10.9896 196.62L0.0606699 40.3289Q0.0180198 39.719 0.00534871 39.1077Q-0.00732241 38.4965 0.010016 37.8853Q0.0273543 37.2741 0.0746604 36.6645Q0.121966 36.055 0.199126 35.4484Q0.276286 34.8419 0.383114 34.2399Q0.489941 33.6379 0.62618 33.0419Q0.762418 32.4458 0.927738 31.8572Q1.09306 31.2685 1.28706 30.6887Q1.48107 30.1089 1.70329 29.5393Q1.92551 28.9697 2.17541 28.4117Q2.42531 27.8537 2.7023 27.3086Q2.97928 26.7635 3.28267 26.2327Q3.58607 25.7019 3.91514 25.1866Q4.24422 24.6713 4.59818 24.1727Q4.95214 23.6742 5.33014 23.1936Q5.70814 22.7131 6.10926 22.2516Q6.51039 21.7902 6.93367 21.349Q7.35695 20.9078 7.80137 20.4879Q8.24579 20.068 8.71028 19.6704Q9.17477 19.2728 9.65821 18.8985Q10.1416 18.5242 10.6429 18.174Q11.1441 17.8239 11.6619 17.4987Q12.1797 17.1736 12.7128 16.8743Q13.246 16.5749 13.7931 16.3021Q14.3403 16.0293 14.9002 15.7837Q15.4601 15.538 16.0314 15.3202Q16.6027 15.1023 17.184 14.9127Q17.7652 14.7232 18.3551 14.5623Q18.945 14.4015 19.5421 14.2698Q20.1391 14.1382 20.7419 14.0359Q21.3448 13.9337 21.9519 13.8612Q22.5589 13.7887 23.1689 13.746L23.1689 13.746Z" fill="#FC3939" fill-rule="evenodd" transform="matrix(0.998 0.07 -0.07 0.998 15.566 12.317)" />
        <g id="pause" transform="matrix(1 0 -0 1 60.377 52.014)">
          <path id="Path" d="M112.07 0.0708431L143.094 0.0708431C145.827 0.0708431 148.16 1.03724 150.093 2.97003C152.026 4.90282 152.992 7.2359 152.992 9.96928L152.992 147.007C152.992 148.319 152.74 149.582 152.238 150.794C151.736 152.007 151.021 153.077 150.094 154.005C149.166 154.934 148.095 155.649 146.883 156.152C145.67 156.654 144.407 156.905 143.094 156.905L111.629 156.905C110.316 156.905 109.054 156.654 107.841 156.151C106.628 155.649 105.557 154.933 104.629 154.005C103.701 153.077 102.986 152.007 102.484 150.794C101.982 149.582 101.732 148.319 101.732 147.007L101.732 79.1568L84.4492 96.4332C83.4965 97.3854 82.3954 98.1129 81.1459 98.6156C79.8963 99.1184 78.5984 99.3561 77.252 99.3289C75.9009 99.3595 74.5983 99.1235 73.344 98.6207C72.0898 98.1179 70.9849 97.3889 70.0293 96.4336L51.2598 77.6692L51.2598 147.007C51.2604 148.32 51.0096 149.582 50.5074 150.795C50.0052 152.007 49.2899 153.078 48.3613 154.006C47.4334 154.934 46.363 155.65 45.1502 156.152C43.9374 156.654 42.6744 156.906 41.3613 156.906L9.89844 156.906C8.58598 156.906 7.32316 156.655 6.10999 156.152C4.89682 155.65 3.82565 154.934 2.89649 154.006C1.96919 153.078 1.25462 152.007 0.75277 150.795C0.250924 149.582 2.11773e-06 148.32 2.11773e-06 147.007L2.11773e-06 9.96977C-0.000623493 8.65722 0.250156 7.39461 0.752339 6.18196C1.25452 4.96931 1.96989 3.8989 2.89844 2.97075C3.82635 2.04252 4.8969 1.32723 6.11007 0.824868C7.32324 0.32251 8.58668 0.0713314 9.90039 0.0713314L41.3613 0.0713314C41.4934 0.0713314 41.6256 0.0740179 41.7578 0.0793919C41.89 0.0847649 42.0222 0.0928206 42.1543 0.103558C43.6972 -0.118499 45.2084 0.0165581 46.688 0.508731C48.1676 1.0009 49.4591 1.79814 50.5625 2.90043L77.2402 29.5704L103.918 2.90092C104.989 1.83052 106.239 1.04706 107.669 0.550551C109.1 0.0540413 110.567 -0.105861 112.07 0.0708431L112.07 0.0708431Z" fill="#FFFFFF" fill-rule="evenodd" />
        </g>
        <g id="hair" transform="matrix(1 0 -0 1 107 0)">
          <path id="Path" d="M45.0184 0.369689L48.8388 1.03302C50.2227 1.27338 51.4865 1.80161 52.6301 2.61771C53.7737 3.43381 54.6844 4.45734 55.3622 5.68829C56.0406 6.91926 56.419 8.23624 56.4974 9.63924C56.5758 11.0422 56.3465 12.393 55.8095 13.6915L47.8348 32.9788C46.9496 35.12 45.4922 36.7495 43.4629 37.8673C41.4335 38.985 39.2775 39.3457 36.995 38.9493L33.1766 38.2862C32.2307 38.1219 31.3318 37.8177 30.48 37.3735C29.6281 36.9293 28.8636 36.3662 28.1864 35.6841C27.5195 36.3288 26.7728 36.8612 25.9463 37.2814C25.1198 37.7017 24.2499 37.9912 23.3368 38.15L19.0126 38.9009C16.8773 39.2717 14.8606 38.9343 12.9625 37.8889C11.0644 36.8434 9.70154 35.3194 8.87391 33.3167L0.702034 13.5552C0.165602 12.2568 -0.0634092 10.906 0.0149985 9.50308C0.0934063 8.10012 0.471507 6.7832 1.1493 5.55231C1.82647 4.32128 2.73702 3.29767 3.88097 2.48148C5.02492 1.66529 6.28949 1.13698 7.67469 0.896544L12.0009 0.145568C14.1356 -0.225151 16.1518 0.112214 18.0495 1.15766C19.9473 2.20311 21.31 3.72716 22.1376 5.7298L28.286 20.5967L34.1766 6.34039C35.0625 4.19913 36.5203 2.56959 38.55 1.45179C40.5798 0.333985 42.7359 -0.0267149 45.0184 0.369689L45.0184 0.369689Z" fill="#FC3939" fill-rule="evenodd" />
        </g>
      </g>
    </g>
  </g>
</svg>