<?xml version="1.0" encoding="utf-8"?>
<svg width="569.998" height="442.889" viewBox="0 0 569.998 442.889" fill="none" xmlns="http://www.w3.org/2000/svg">
  <g id="Mono" transform="matrix(0.998 0.07 -0.07 0.998 28.32 0)">
    <path id="Rectangle" d="M49.9062 0L493.094 0Q494.319 0 495.542 0.0601142Q496.766 0.120228 497.985 0.240312Q499.204 0.360396 500.416 0.54016Q501.628 0.719923 502.83 0.958934Q504.031 1.19795 505.22 1.49563Q506.408 1.79331 507.581 2.14895Q508.753 2.50458 509.906 2.91732Q511.06 3.33005 512.192 3.79889Q513.324 4.26772 514.431 4.79153Q515.539 5.31534 516.619 5.89287Q517.7 6.47039 518.75 7.10023Q519.801 7.73007 520.82 8.41072Q521.839 9.09136 522.823 9.82117Q523.807 10.551 524.754 11.3282Q525.701 12.1054 526.609 12.9282Q527.516 13.7509 528.383 14.6172Q529.249 15.4835 530.072 16.3913Q530.894 17.299 531.672 18.2461Q532.449 19.1931 533.179 20.1771Q533.908 21.1612 534.589 22.1798Q535.27 23.1985 535.9 24.2493Q536.529 25.3001 537.107 26.3806Q537.684 27.4611 538.208 28.5686Q538.732 29.6761 539.201 30.8079Q539.67 31.9398 540.082 33.0933Q540.495 34.2468 540.851 35.4192Q541.207 36.5916 541.504 37.78Q541.802 38.9684 542.041 40.17Q542.28 41.3716 542.46 42.5835Q542.639 43.7953 542.759 45.0146Q542.88 46.2338 542.94 47.4575Q543 48.6811 543 49.9062L543 306.83Q543 308.055 542.94 309.279Q542.88 310.503 542.76 311.722Q542.639 312.941 542.46 314.153Q542.28 315.365 542.041 316.566Q541.802 317.768 541.504 318.956Q541.206 320.145 540.851 321.317Q540.495 322.49 540.082 323.643Q539.67 324.797 539.201 325.928Q538.732 327.06 538.208 328.168Q537.684 329.275 537.107 330.356Q536.529 331.436 535.9 332.487Q535.27 333.538 534.589 334.557Q533.908 335.575 533.179 336.559Q532.449 337.543 531.672 338.49Q530.894 339.437 530.072 340.345Q529.249 341.253 528.383 342.119Q527.516 342.985 526.609 343.808Q525.701 344.631 524.754 345.408Q523.807 346.185 522.823 346.915Q521.839 347.645 520.82 348.326Q519.801 349.006 518.75 349.636Q517.7 350.266 516.619 350.844Q515.539 351.421 514.431 351.945Q513.324 352.469 512.192 352.938Q511.06 353.406 509.906 353.819Q508.753 354.232 507.581 354.587Q506.408 354.943 505.22 355.241Q504.031 355.538 502.83 355.777Q501.628 356.016 500.416 356.196Q499.204 356.376 497.985 356.496Q496.766 356.616 495.542 356.676Q494.319 356.736 493.094 356.736L49.9063 356.736Q48.6811 356.736 47.4575 356.676Q46.2338 356.616 45.0146 356.496Q43.7954 356.376 42.5835 356.196Q41.3716 356.016 40.17 355.777Q38.9684 355.538 37.78 355.241Q36.5916 354.943 35.4192 354.587Q34.2469 354.232 33.0933 353.819Q31.9398 353.406 30.808 352.938Q29.6761 352.469 28.5686 351.945Q27.4611 351.421 26.3806 350.844Q25.3001 350.266 24.2493 349.636Q23.1985 349.006 22.1798 348.326Q21.1612 347.645 20.1771 346.915Q19.1931 346.185 18.2461 345.408Q17.299 344.631 16.3913 343.808Q15.4835 342.985 14.6172 342.119Q13.7509 341.253 12.9282 340.345Q12.1054 339.437 11.3282 338.49Q10.551 337.543 9.82117 336.559Q9.09136 335.575 8.41072 334.557Q7.73007 333.538 7.10023 332.487Q6.47039 331.436 5.89287 330.356Q5.31534 329.275 4.79153 328.168Q4.26772 327.06 3.79889 325.928Q3.33005 324.797 2.91732 323.643Q2.50458 322.49 2.14895 321.317Q1.79331 320.145 1.49563 318.956Q1.19795 317.768 0.958934 316.566Q0.719923 315.365 0.54016 314.153Q0.360396 312.941 0.240312 311.722Q0.120228 310.503 0.0601142 309.279Q0 308.055 0 306.83L0 49.9062Q0 48.6811 0.0601142 47.4575Q0.120228 46.2338 0.240312 45.0146Q0.360396 43.7953 0.54016 42.5835Q0.719923 41.3716 0.958934 40.17Q1.19795 38.9684 1.49563 37.78Q1.79331 36.5916 2.14895 35.4192Q2.50458 34.2468 2.91732 33.0933Q3.33005 31.9398 3.79889 30.8079Q4.26772 29.6761 4.79153 28.5686Q5.31534 27.4611 5.89287 26.3806Q6.47039 25.3001 7.10023 24.2493Q7.73007 23.1985 8.41072 22.1798Q9.09136 21.1612 9.82117 20.1771Q10.551 19.1931 11.3282 18.2461Q12.1054 17.299 12.9282 16.3913Q13.7509 15.4835 14.6172 14.6172Q15.4835 13.7509 16.3913 12.9282Q17.299 12.1054 18.2461 11.3282Q19.1931 10.551 20.1771 9.82117Q21.1612 9.09136 22.1798 8.41072Q23.1985 7.73007 24.2493 7.10023Q25.3001 6.47039 26.3806 5.89287Q27.4611 5.31534 28.5686 4.79153Q29.6761 4.26772 30.808 3.79889Q31.9398 3.33005 33.0933 2.91732Q34.2469 2.50458 35.4192 2.14895Q36.5916 1.79331 37.78 1.49563Q38.9684 1.19795 40.17 0.958934Q41.3716 0.719923 42.5835 0.54016Q43.7954 0.360396 45.0146 0.240312Q46.2338 0.120228 47.4575 0.0601142Q48.6811 0 49.9063 0L49.9062 0Z" fill="#FC3939" fill-rule="evenodd" transform="translate(0 49.264)" />
    <g id="pause" transform="translate(209.565 179.958)">
      <path id="Rectangle" d="M44.3 0C49.8236 0 54.3 4.4764 54.3 10L54.3 120.078C54.3 125.601 49.8236 130.078 44.3 130.078L10 130.078C4.4764 130.078 0 125.601 0 120.078L0 10C0 4.4764 4.4764 0 10 0L44.3 0Z" fill="#FFFFFF" transform="translate(69.866 0)" />
      <path id="Rectangle" d="M9.89844 0L44.4015 0Q44.6445 0 44.8872 0.0119231Q45.1299 0.0238462 45.3717 0.0476637Q45.6136 0.0714812 45.8539 0.107136Q46.0943 0.14279 46.3326 0.190196Q46.5709 0.237601 46.8067 0.296644Q47.0424 0.355686 47.2749 0.426223Q47.5074 0.49676 47.7362 0.578622Q47.965 0.660484 48.1895 0.753474Q48.414 0.846463 48.6337 0.950356Q48.8533 1.05425 49.0676 1.16879Q49.2819 1.28334 49.4903 1.40826Q49.6988 1.53319 49.9008 1.66819Q50.1028 1.80319 50.298 1.94794Q50.4932 2.09269 50.681 2.24684Q50.8689 2.40099 51.0489 2.56418Q51.229 2.72736 51.4008 2.89918Q51.5726 3.07101 51.7358 3.25105Q51.899 3.4311 52.0531 3.61893Q52.2073 3.80677 52.352 4.00194Q52.4968 4.19712 52.6318 4.39916Q52.7668 4.6012 52.8917 4.80962Q53.0166 5.01804 53.1312 5.23235Q53.2457 5.44665 53.3496 5.66631Q53.4535 5.88597 53.5465 6.11047Q53.6395 6.33496 53.7213 6.56375Q53.8032 6.79254 53.8737 7.02507Q53.9443 7.2576 54.0033 7.49331Q54.0624 7.72902 54.1098 7.96735Q54.1572 8.20567 54.1928 8.44604Q54.2285 8.6864 54.2523 8.92822Q54.2761 9.17004 54.288 9.41274Q54.3 9.65545 54.3 9.89844L54.3 120.179Q54.3 120.422 54.288 120.665Q54.2761 120.908 54.2523 121.149Q54.2285 121.391 54.1928 121.632Q54.1572 121.872 54.1098 122.11Q54.0624 122.349 54.0033 122.584Q53.9443 122.82 53.8737 123.053Q53.8032 123.285 53.7213 123.514Q53.6395 123.743 53.5465 123.967Q53.4535 124.192 53.3496 124.411Q53.2457 124.631 53.1312 124.845Q53.0166 125.06 52.8917 125.268Q52.7668 125.476 52.6318 125.678Q52.4968 125.88 52.352 126.076Q52.2073 126.271 52.0531 126.459Q51.899 126.647 51.7358 126.827Q51.5726 127.007 51.4008 127.178Q51.229 127.35 51.0489 127.513Q50.8689 127.677 50.681 127.831Q50.4932 127.985 50.298 128.13Q50.1028 128.274 49.9008 128.409Q49.6988 128.544 49.4903 128.669Q49.2819 128.794 49.0676 128.909Q48.8533 129.023 48.6337 129.127Q48.414 129.231 48.1895 129.324Q47.965 129.417 47.7362 129.499Q47.5074 129.581 47.2749 129.651Q47.0424 129.722 46.8067 129.781Q46.5709 129.84 46.3326 129.887Q46.0943 129.935 45.8539 129.97Q45.6136 130.006 45.3717 130.03Q45.1299 130.054 44.8872 130.066Q44.6445 130.078 44.4015 130.078L9.89844 130.078Q9.65545 130.078 9.41274 130.066Q9.17004 130.054 8.92822 130.03Q8.6864 130.006 8.44603 129.97Q8.20567 129.935 7.96735 129.887Q7.72902 129.84 7.49331 129.781Q7.2576 129.722 7.02507 129.651Q6.79254 129.581 6.56375 129.499Q6.33496 129.417 6.11047 129.324Q5.88597 129.231 5.66631 129.127Q5.44665 129.023 5.23235 128.909Q5.01804 128.794 4.80962 128.669Q4.6012 128.544 4.39916 128.409Q4.19712 128.274 4.00194 128.13Q3.80677 127.985 3.61893 127.831Q3.4311 127.677 3.25105 127.513Q3.07101 127.35 2.89918 127.178Q2.72736 127.007 2.56418 126.827Q2.40099 126.647 2.24684 126.459Q2.09269 126.271 1.94794 126.076Q1.80319 125.88 1.66819 125.678Q1.53319 125.476 1.40826 125.268Q1.28334 125.06 1.16879 124.845Q1.05425 124.631 0.950356 124.411Q0.846463 124.192 0.753474 123.967Q0.660484 123.743 0.578622 123.514Q0.49676 123.285 0.426223 123.053Q0.355686 122.82 0.296644 122.584Q0.237601 122.349 0.190196 122.11Q0.14279 121.872 0.107136 121.632Q0.0714812 121.391 0.0476637 121.149Q0.0238462 120.908 0.0119231 120.665Q0 120.422 0 120.179L0 9.89844Q0 9.65545 0.0119231 9.41274Q0.0238462 9.17004 0.0476637 8.92822Q0.0714812 8.6864 0.107136 8.44603Q0.14279 8.20567 0.190196 7.96735Q0.237601 7.72902 0.296644 7.49331Q0.355686 7.2576 0.426223 7.02507Q0.49676 6.79254 0.578622 6.56375Q0.660484 6.33496 0.753474 6.11047Q0.846463 5.88597 0.950356 5.66631Q1.05425 5.44665 1.16879 5.23235Q1.28334 5.01804 1.40826 4.80962Q1.53319 4.6012 1.66819 4.39916Q1.80319 4.19712 1.94794 4.00194Q2.09269 3.80677 2.24684 3.61893Q2.40099 3.4311 2.56418 3.25105Q2.72736 3.07101 2.89918 2.89918Q3.07101 2.72736 3.25105 2.56418Q3.4311 2.40099 3.61893 2.24684Q3.80677 2.09269 4.00194 1.94794Q4.19712 1.80319 4.39916 1.66819Q4.6012 1.53319 4.80962 1.40826Q5.01804 1.28334 5.23235 1.16879Q5.44665 1.05425 5.66631 0.950356Q5.88597 0.846463 6.11047 0.753474Q6.33496 0.660484 6.56375 0.578622Q6.79254 0.49676 7.02507 0.426223Q7.2576 0.355686 7.49331 0.296644Q7.72902 0.237601 7.96735 0.190196Q8.20567 0.14279 8.44604 0.107136Q8.6864 0.0714812 8.92822 0.0476637Q9.17004 0.0238462 9.41274 0.0119231Q9.65545 0 9.89844 0Z" fill="#FFFFFF" fill-rule="evenodd" />
    </g>
    <g id="hair" transform="translate(200.232 0)">
      <path id="Rectangle" d="M35.4202 0.0901868L65.3398 4.15689Q65.6344 4.19694 65.9261 4.25458Q66.2177 4.31223 66.5054 4.38728Q66.7931 4.46233 67.0757 4.55451Q67.3584 4.64669 67.635 4.75567Q67.9116 4.86464 68.1812 4.99002Q68.4507 5.11541 68.7123 5.25674Q68.9738 5.39807 69.2265 5.55485Q69.4791 5.71162 69.7218 5.88328Q69.9645 6.05493 70.1965 6.24084Q70.4285 6.42676 70.649 6.62626Q70.8694 6.82576 71.0774 7.03813Q71.2855 7.2505 71.4804 7.47497Q71.6754 7.69945 71.8565 7.93522Q72.0376 8.17099 72.2042 8.4172Q72.3708 8.66341 72.5224 8.91918Q72.674 9.17495 72.8099 9.43936Q72.9458 9.70376 73.0656 9.97585Q73.1855 10.2479 73.2887 10.5267Q73.392 10.8055 73.4784 11.09Q73.5647 11.3745 73.6338 11.6636Q73.703 11.9528 73.7546 12.2456Q73.8063 12.5383 73.8402 12.8337Q73.8742 13.129 73.8904 13.4259Q73.9066 13.7228 73.905 14.0201Q73.9033 14.3173 73.8838 14.614Q73.8643 14.9107 73.8271 15.2056Q73.7898 15.5006 73.7349 15.7928Q73.68 16.085 73.6077 16.3733Q73.5354 16.6617 73.4459 16.9452Q73.3564 17.2287 73.25 17.5063Q73.1437 17.784 73.0208 18.0547Q72.898 18.3254 72.7591 18.5883L48.5706 64.3812Q48.3943 64.715 48.1931 65.0345Q47.9918 65.3539 47.7668 65.6571Q47.5418 65.9602 47.2944 66.2454Q47.047 66.5305 46.7785 66.796Q46.5101 67.0615 46.2222 67.3057Q45.9343 67.55 45.6287 67.7716Q45.323 67.9932 45.0014 68.1909Q44.6798 68.3886 44.344 68.5612Q44.0082 68.7339 43.6603 68.8804Q43.3124 69.0269 42.9543 69.1465Q42.5962 69.2662 42.23 69.3581Q41.8639 69.4501 41.4918 69.514Q41.1197 69.5778 40.7438 69.6131Q40.3679 69.6484 39.9904 69.655Q39.613 69.6616 39.2361 69.6394Q38.8592 69.6171 38.4851 69.5663L8.56535 65.4997Q8.27075 65.4597 7.97909 65.4021Q7.68744 65.3444 7.39976 65.2694Q7.11209 65.1943 6.82944 65.1021Q6.54679 65.01 6.27018 64.901Q5.99357 64.792 5.724 64.6666Q5.45443 64.5412 5.19287 64.3999Q4.93131 64.2586 4.67871 64.1018Q4.4261 63.945 4.18336 63.7734Q3.94062 63.6017 3.70862 63.4158Q3.47662 63.2299 3.25619 63.0304Q3.03577 62.8309 2.82771 62.6185Q2.61966 62.4062 2.42472 62.1817Q2.22979 61.9572 2.04868 61.7214Q1.86757 61.4857 1.70093 61.2394Q1.5343 60.9932 1.38274 60.7375Q1.23119 60.4817 1.09525 60.2173Q0.959319 59.9529 0.839499 59.6808Q0.719679 59.4087 0.616405 59.1299Q0.513131 58.8511 0.426774 58.5667Q0.340418 58.2822 0.271291 57.993Q0.202164 57.7039 0.150515 57.4111Q0.0988669 57.1183 0.064883 56.823Q0.0308992 56.5276 0.0147025 56.2307Q-0.00149416 55.9339 0.000154763 55.6366Q0.00180369 55.3393 0.0212923 55.0426Q0.0407808 54.746 0.0780388 54.451Q0.115297 54.156 0.17019 53.8639Q0.225083 53.5717 0.297413 53.2833Q0.369743 52.9949 0.45925 52.7114Q0.548756 52.4279 0.655117 52.1503Q0.761477 51.8727 0.884308 51.6019Q1.00714 51.3312 1.146 51.0683L25.3346 5.27526Q25.5109 4.94143 25.7122 4.622Q25.9134 4.30258 26.1384 3.99941Q26.3634 3.69624 26.6109 3.41109Q26.8583 3.12594 27.1267 2.86046Q27.3952 2.59499 27.6831 2.35073Q27.9709 2.10648 28.2766 1.88486Q28.5822 1.66324 28.9039 1.46555Q29.2255 1.26786 29.5613 1.09524Q29.897 0.922618 30.245 0.776077Q30.5929 0.629536 30.951 0.509923Q31.3091 0.39031 31.6752 0.298321Q32.0414 0.206332 32.4135 0.142501Q32.7856 0.0786696 33.1615 0.0433676Q33.5374 0.00806561 33.9149 0.00149776Q34.2923 -0.00507009 34.6692 0.0171344Q35.0461 0.0393388 35.4202 0.0901866L35.4202 0.0901868Z" fill="#FC3939" fill-rule="evenodd" transform="translate(56.305 0.235)" />
      <path id="Rectangle" d="M8.56529 4.15688L38.4847 0.0901871Q38.8588 0.0393393 39.2357 0.0171347Q39.6126 -0.00506983 39.9901 0.00149786Q40.3676 0.00806556 40.7434 0.0433673Q41.1193 0.0786691 41.4914 0.1425Q41.8635 0.206331 42.2297 0.29832Q42.5958 0.390308 42.9539 0.509921Q43.312 0.629533 43.66 0.776074Q44.0079 0.922615 44.3437 1.09523Q44.6794 1.26785 45.0011 1.46554Q45.3227 1.66324 45.6283 1.88485Q45.934 2.10647 46.2219 2.35073Q46.5098 2.59498 46.7782 2.86046Q47.0466 3.12593 47.2941 3.41108Q47.5415 3.69623 47.7665 3.9994Q47.9915 4.30257 48.1927 4.62199Q48.394 4.94142 48.5703 5.27525L72.759 51.0683Q72.8979 51.3312 73.0207 51.6019Q73.1435 51.8727 73.2499 52.1503Q73.3563 52.4279 73.4458 52.7114Q73.5353 52.9949 73.6076 53.2833Q73.6799 53.5717 73.7348 53.8639Q73.7897 54.1561 73.827 54.451Q73.8642 54.746 73.8837 55.0426Q73.9032 55.3393 73.9049 55.6366Q73.9065 55.9339 73.8903 56.2308Q73.8741 56.5276 73.8401 56.823Q73.8062 57.1183 73.7545 57.4111Q73.7029 57.7039 73.6337 57.993Q73.5646 58.2822 73.4782 58.5667Q73.3919 58.8512 73.2886 59.1299Q73.1853 59.4087 73.0655 59.6808Q72.9457 59.9529 72.8098 60.2173Q72.6738 60.4817 72.5223 60.7375Q72.3707 60.9932 72.2041 61.2395Q72.0375 61.4857 71.8564 61.7215Q71.6752 61.9572 71.4803 62.1817Q71.2854 62.4062 71.0773 62.6185Q70.8693 62.8309 70.6488 63.0304Q70.4284 63.2299 70.1964 63.4158Q69.9644 63.6017 69.7217 63.7734Q69.4789 63.945 69.2263 64.1018Q68.9737 64.2586 68.7122 64.3999Q68.4506 64.5413 68.181 64.6666Q67.9115 64.792 67.6349 64.901Q67.3582 65.01 67.0756 65.1021Q66.7929 65.1943 66.5053 65.2694Q66.2176 65.3444 65.9259 65.4021Q65.6343 65.4597 65.3397 65.4998L35.4205 69.5663Q35.0464 69.6171 34.6695 69.6393Q34.2926 69.6615 33.9151 69.655Q33.5377 69.6484 33.1618 69.6131Q32.7859 69.5778 32.4138 69.514Q32.0417 69.4501 31.6755 69.3582Q31.3094 69.2662 30.9513 69.1466Q30.5932 69.0269 30.2453 68.8804Q29.8973 68.7339 29.5616 68.5613Q29.2258 68.3886 28.9042 68.1909Q28.5825 67.9933 28.2769 67.7716Q27.9713 67.55 27.6834 67.3058Q27.3955 67.0615 27.1271 66.796Q26.8586 66.5306 26.6112 66.2454Q26.3638 65.9603 26.1388 65.6571Q25.9138 65.354 25.7125 65.0345Q25.5113 64.7151 25.3349 64.3813L1.14602 18.5884Q1.00716 18.3255 0.884331 18.0547Q0.761498 17.784 0.655136 17.5064Q0.548774 17.2288 0.459266 16.9452Q0.369757 16.6617 0.297425 16.3734Q0.225093 16.085 0.170198 15.7928Q0.115303 15.5006 0.0780436 15.2057Q0.0407838 14.9107 0.0212934 14.614Q0.00180295 14.3174 0.000152171 14.0201Q-0.00149861 13.7228 0.0146962 13.4259Q0.030891 13.1291 0.0648731 12.8337Q0.0988551 12.5384 0.150502 12.2456Q0.202149 11.9528 0.271274 11.6636Q0.340399 11.3745 0.426754 11.09Q0.513108 10.8055 0.616381 10.5267Q0.719653 10.248 0.839472 9.97586Q0.95929 9.70378 1.09522 9.43937Q1.23115 9.17496 1.38271 8.91919Q1.53426 8.66342 1.7009 8.41721Q1.86753 8.17099 2.04864 7.93522Q2.22975 7.69945 2.42468 7.47498Q2.61961 7.2505 2.82767 7.03813Q3.03572 6.82576 3.25615 6.62625Q3.47657 6.42675 3.70857 6.24084Q3.94057 6.05492 4.18331 5.88327Q4.42605 5.71162 4.67866 5.55484Q4.93126 5.39806 5.19282 5.25673Q5.45438 5.11539 5.72395 4.99001Q5.99352 4.86463 6.27012 4.75565Q6.54673 4.64668 6.82938 4.5545Q7.11203 4.46232 7.3997 4.38727Q7.68738 4.31222 7.97903 4.25457Q8.27069 4.19692 8.56529 4.15688L8.56529 4.15688Z" fill="#FC3939" fill-rule="evenodd" />
    </g>
    <g id="brows" transform="matrix(-1 0 0 1 333.494 123.859)">
      <path id="Oval" d="M14.0975 2.45243C11.2223 5.04414 5.40155 10.291 1.59164 13.7252C-0.417816 15.5366 -0.599613 18.6676 1.47678 20.4018C3.11575 21.7706 4.87866 22.9837 6.74249 24.0251C9.10415 25.3447 13.2188 26.926 15.8564 27.5275C17.9368 28.0019 20.0568 28.2813 22.1889 28.3621C24.8923 28.4644 29.2761 28.003 31.899 27.3402C33.9681 26.8174 35.9842 26.1027 37.9209 25.2055C40.3756 24.0684 44.0711 21.6656 46.1067 19.8837C47.7141 18.4766 49.187 16.9225 50.5064 15.2417C52.1769 13.1137 51.3484 10.0894 49.0061 8.73561C44.5663 6.16952 37.784 2.24954 34.4334 0.312981C33.3192 -0.33097 31.9112 0.0750374 31.035 1.0176C30.9895 1.06651 30.9436 1.11499 30.8972 1.16301C30.0029 2.08836 28.232 3.23975 27.0233 3.68137C26.9607 3.70425 26.8978 3.72652 26.8348 3.74818C25.6187 4.1659 23.5198 4.38679 22.2434 4.23127C22.1767 4.22314 22.1102 4.21437 22.0437 4.20494C20.7706 4.02448 18.8005 3.26755 17.734 2.54925C17.6783 2.5117 17.6229 2.47361 17.5679 2.43498C16.5148 1.69532 15.0534 1.59082 14.0975 2.45243Z" fill="#CD2424" fill-rule="evenodd" transform="matrix(-1 0 0 1 55.294 0)" />
      <path id="Oval" d="M37.2876 2.45233C40.1628 5.04406 45.9834 10.2909 49.7933 13.7252C51.8028 15.5365 51.9845 18.6675 49.9081 20.4017C48.2691 21.7707 46.5061 22.9838 44.6422 24.0253C42.2806 25.3449 38.1659 26.9261 35.5283 27.5276C33.448 28.002 31.328 28.2814 29.1959 28.3621C26.4925 28.4645 22.1087 28.0031 19.4858 27.3403C17.4168 26.8174 15.4008 26.1028 13.4642 25.2056C11.0095 24.0684 7.31394 21.6657 5.27832 19.8838C3.67082 18.4767 2.19778 16.9226 0.878387 15.2417C-0.792038 13.1137 0.036644 10.0892 2.37891 8.73548C6.81869 6.16943 13.6009 2.24953 16.9515 0.312991C18.0657 -0.330958 19.4738 0.0750073 20.3499 1.01755C20.3954 1.06644 20.4413 1.11489 20.4877 1.16289C21.382 2.08824 23.1529 3.23964 24.3616 3.6812C24.4243 3.70408 24.4871 3.72636 24.5502 3.74802C25.7663 4.16568 27.8652 4.38667 29.1416 4.23118C29.2083 4.22305 29.2749 4.21427 29.3415 4.20484C30.6145 4.02437 32.5846 3.26733 33.651 2.54901C33.7068 2.51147 33.7621 2.4734 33.8171 2.43478C34.8702 1.69515 36.3317 1.59072 37.2876 2.45233Z" fill="#CD2424" fill-rule="evenodd" transform="matrix(-1 0 0 1 122.872 0.407)" />
    </g>
  </g>
</svg>